<svg xmlns="http://www.w3.org/2000/svg" width="500" height="500" viewBox="0 0 132.3 132.3"><path fill="#7fd2f1" d="M38.5 116.1h24.2V34H38.5Z"/><path fill="#95dcee" d="M57.9 79.5h4.8V75h-4.8z"/><path fill="#7fd2f1" d="M53 79.5h4.8V75H53z"/><path fill="#4d99d9" d="M48.2 79.5H53V75h-4.8z"/><path fill="#7fd2f1" d="M43.3 79.5h4.8V75h-4.8z"/><path fill="#a2e1f2" d="M38.5 79.5h4.8V75h-4.8z"/><path fill="#7fd2f1" d="M57.9 84.1h4.8v-4.5h-4.8z"/><path fill="#95dcee" d="M53 84.1h4.8v-4.5H53z"/><path fill="#7fd2f1" d="M48.2 84.1H53v-4.5h-4.8V84"/><path fill="#a2e1f2" d="M43.3 84.1h4.8v-4.5h-4.8z"/><path fill="#62b3e3" d="M38.5 84.1h4.8v-4.5h-4.8z"/><path fill="#7fd2f1" d="M57.9 88.7h4.8v-4.5h-4.8z"/><path fill="#95dcee" d="M53 88.7h4.8v-4.5H53z"/><path fill="#7fd2f1" d="M48.2 88.7H53v-4.5h-4.8v4.5m-4.9 0h4.8v-4.5h-4.8z"/><path fill="#62b3e3" d="M38.5 88.7h4.8v-4.5h-4.8z"/><path fill="#7fd2f1" d="M57.9 93.3h4.8v-4.6h-4.8z"/><path fill="#62b3e3" d="M53 93.3h4.8v-4.6H53z"/><path fill="#4d99d9" d="M48.2 93.3H53v-4.6h-4.8v4.6"/><path fill="#7fd2f1" d="M43.3 93.3h4.8v-4.6h-4.8v4.6m-4.8 0h4.8v-4.6h-4.8z"/><path fill="#95dcee" d="M57.9 97.8h4.8v-4.5h-4.8z"/><path fill="#7fd2f1" d="M53 97.8h4.8v-4.5H53zm-4.8 0H53v-4.5h-4.8v4.5m-4.9 0h4.8v-4.5h-4.8v4.5"/><path fill="#a2e1f2" d="M38.5 97.8h4.8v-4.5h-4.8z"/><path fill="#7fd2f1" d="M57.9 102.4h4.8V98h-4.8z"/><path fill="#95dcee" d="M53 102.4h4.8V98H53z"/><path fill="#7fd2f1" d="M48.2 102.4H53V98h-4.8v4.5"/><path fill="#4d99d9" d="M43.3 102.4h4.8V98h-4.8v4.5"/><path fill="#7fd2f1" d="M38.5 102.4h4.8V98h-4.8zm19.4 4.6h4.8v-4.5h-4.8z"/><path fill="#62b3e3" d="M53 107h4.8v-4.5H53z"/><path fill="#7fd2f1" d="M48.2 107H53v-4.5h-4.8v4.5"/><path fill="#95dcee" d="M43.3 107h4.8v-4.5h-4.8v4.5"/><path fill="#7fd2f1" d="M38.5 107h4.8v-4.5h-4.8zm19.4 4.6h4.8V107h-4.8zm-4.9 0h4.8V107H53z"/><path fill="#95dcee" d="M48.2 111.6H53V107h-4.8v4.6"/><path fill="#7fd2f1" d="M43.3 111.6h4.8V107h-4.8z"/><path fill="#62b3e3" d="M38.5 111.6h4.8V107h-4.8z"/><path fill="#7fd2f1" d="M57.9 116.1h4.8v-4.5h-4.8z"/><path fill="#95dcee" d="M53 116.1h4.8v-4.5H53z"/><path fill="#7fd2f1" d="M48.2 116.1H53v-4.5h-4.8v4.5"/><path fill="#4d99d9" d="M43.3 116.1h4.8v-4.5h-4.8v4.5"/><path fill="#7fd2f1" d="M38.5 116.1h4.8v-4.5h-4.8zm0-40.9h4.8v-4.5h-4.8zm9.6-4.5h-4.8v4.5h4.8v-4.5m.1 4.5H53v-4.5h-4.8z"/><path fill="#62b3e3" d="M57.8 75.2V75H53v-4.3h4.8v4.5"/><path fill="#62b3e3" d="M53 75.2h4.8V75H53z"/><path fill="#95dcee" d="M57.9 75.2h4.8v-4.5h-4.8z"/><path fill="#4d99d9" d="M38.5 70.6h4.8v-4.5h-4.8z"/><path fill="#7fd2f1" d="M43.3 70.6h4.8v-4.5h-4.8z"/><path fill="#62beed" d="M48.2 70.6H53v-4.5h-4.8z"/><path fill="#7fd2f1" d="M53 70.6h4.8v-4.5H53zm4.9 0h4.8v-4.5h-4.8zM38.5 66h4.8v-4.5h-4.8z"/><path fill="#62b3e3" d="M43.3 66h4.8v-4.5h-4.8z"/><path fill="#7fd2f1" d="M53 61.5h-4.8V66H53v-4.5"/><path fill="#62beed" d="M53 66h4.8v-4.5H53z"/><path fill="#7fd2f1" d="M57.9 66h4.8v-4.5h-4.8z"/><path fill="#62beed" d="M38.5 61.5h4.8v-4.6h-4.8z"/><path fill="#7fd2f1" d="M48.1 57h-4.8v4.5h4.8v-4.6m4.9.1h-4.8v4.5H53v-4.6"/><path fill="#4d99d9" d="M53 61.5h4.8v-4.6H53z"/><path fill="#7fd2f1" d="M57.9 61.5h4.8v-4.6h-4.8zm-19.4-4.6h4.8v-4.5h-4.8z"/><path fill="#4d99d9" d="M48.1 52.4h-4.8v4.5h4.8v-4.5"/><path fill="#7fd2f1" d="M48.2 56.9H53v-4.5h-4.8zm4.8 0h4.8v-4.5H53z"/><path fill="#95dcee" d="M57.9 56.9h4.8v-4.5h-4.8z"/><path fill="#7fd2f1" d="M38.5 52.3h4.8v-4.5h-4.8zm4.8 0h4.8v-4.5h-4.8z"/><path fill="#62beed" d="M48.2 52.3H53v-4.5h-4.8z"/><path fill="#62b3e3" d="M53 52.3h4.8v-4.5H53z"/><path fill="#7fd2f1" d="M57.9 52.3h4.8v-4.5h-4.8z"/><path fill="#62b3e3" d="M38.5 47.7h4.8v-4.5h-4.8z"/><path fill="#7fd2f1" d="M48.1 43.2h-4.8v4.5h4.8v-4.5"/><path fill="#62beed" d="M53 43.2h-4.8v4.5H53v-4.5"/><path fill="#7fd2f1" d="M53 47.7h4.8v-4.5H53zm4.9 0h4.8v-4.5h-4.8zm-19.4-4.5h4.8v-4.6h-4.8z"/><path fill="#62beed" d="M48.1 38.6h-4.8v4.6h4.8v-4.6"/><path fill="#7fd2f1" d="M53 38.6h-4.8v4.6H53v-4.6"/><path fill="#4d99d9" d="M53 43.2h4.8v-4.6H53z"/><path fill="#7fd2f1" d="M57.9 43.2h4.8v-4.6h-4.8zm-19.4-4.6h4.8v-4.5h-4.8zm9.6-4.6h-4.8v4.6h4.8v-4.5"/><path fill="#4d99d9" d="M48.2 38.6H53v-4.5h-4.8z"/><path fill="#62b3e3" d="M53 38.6h4.8v-4.5H53z"/><path fill="#94cae8" d="M38.5 116.3h-4.8V34h4.8v.2h-4.8v4.5h4.8v9.2h-4.8v4.5h4.8-4.8V57h4.8v13.8h-4.8v8.8h4.8v-4.3 41.1m-4.8-13.8v4.5h4.8v-4.5h-4.8m0-13.8v4.6h4.8v-4.6h-4.8"/><path fill="#62b3e3" d="M38.5 116.1V75.2v41m0-45.5V56.9v13.8m0-22.9v-9.2 9.2m0-13.7v-.2.2m0 82v-4.5 4.5"/><path fill="#7fd2f1" d="M33.7 79.5h4.8V75h-4.8z"/><path fill="#95dcee" d="M33.7 84.1h4.8v-4.5h-4.8V84m0 4.7h4.8v-4.5h-4.8v4.5"/><path fill="#68afdf" d="M33.7 93.3h4.8v-4.6h-4.8z"/><path fill="#7fd2f1" d="M33.7 97.8h4.8v-4.5h-4.8v4.5"/><path fill="#95dcee" d="M33.7 102.4h4.8V98h-4.8v4.5"/><path fill="#68afdf" d="M33.7 107h4.8v-4.5h-4.8z"/><path fill="#7fd2f1" d="M33.7 111.6h4.8V107h-4.8v4.6"/><path fill="#95dcee" d="M33.7 116.1h4.8v-4.5h-4.8v4.5"/><path fill="#68afdf" d="M38.5 75.2V75h-4.8v-4.3h4.8v4.5"/><path fill="#56a6de" d="M38.5 75.2v-4.5 4.5"/><path fill="#62b3e3" d="M33.7 75.2h4.8V75h-4.8z"/><path fill="#7fd2f1" d="M38.5 66h-4.8v4.6h4.8v-4.5"/><path fill="#62beed" d="M38.5 61.5h-4.8V66h4.8v-4.5"/><path fill="#4d99d9" d="M38.5 57h-4.8v4.5h4.8v-4.6"/><path fill="#7fd2f1" d="M33.7 56.9h4.8v-4.5h-4.8z"/><path fill="#68afdf" d="M33.7 52.3h4.8v-4.5h-4.8z"/><path fill="#7fd2f1" d="M38.5 43.2h-4.8v4.5h4.8v-4.5"/><path fill="#4d99d9" d="M38.5 38.6h-4.8v4.6h4.8v-4.6"/><path fill="#68afdf" d="M33.7 38.6h4.8v-4.5h-4.8z"/><path fill="#86c3e5" d="M62.7 116.3H58v-.2h4.8V34v82.4"/><path fill="#5daee1" d="M62.7 111.6h-4.8 4.8m0-4.6h-4.8 4.8m0-4.5h-4.8 4.8m0-4.6h-4.8 4.8m0-4.6h-4.8 4.8m0-4.6h-4.8 4.8m0-4.5h-4.8 4.8m0-4.6h-4.8 4.8m0-9h-4.8 4.8m0-4.5h-4.8 4.8m0-4.6h-4.8 4.8m0-4.6h-4.8 4.8m0-4.5h-4.8 4.8m0-4.6h-4.8 4.8m0-4.6h-4.8 4.8m0-4.6h-4.8V34h4.8v4.7"/><path fill="#64b3e1" d="M62.7 79.5h-4.8v-4.3h4.8v4.3"/><path fill="#5daee1" d="M62.7 84.1h-4.8v-4.5h4.8V84m0 4.7h-4.8v-4.5h4.8v4.5m0 4.6h-4.8v-4.6h4.8v4.6"/><path fill="#64b3e1" d="M62.7 97.8h-4.8v-4.5h4.8v4.5"/><path fill="#5daee1" d="M62.7 102.4h-4.8V98h4.8v4.5m0 4.5h-4.8v-4.5h4.8v4.5m0 4.6h-4.8V107h4.8v4.6m0 4.5h-4.8v-4.5h4.8v4.5"/><path fill="#64b3e1" d="M62.7 75.2h-4.8v-4.5h4.8v4.5"/><path fill="#5daee1" d="M62.7 70.6h-4.8v-4.5h4.8v4.5m0-4.6h-4.8v-4.5h4.8V66m0-4.5h-4.8v-4.6h4.8v4.6"/><path fill="#64b3e1" d="M62.7 56.9h-4.8v-4.5h4.8v4.5"/><path fill="#5daee1" d="M62.7 52.3h-4.8v-4.5h4.8v4.5m0-4.6h-4.8v-4.5h4.8v4.5m0-4.5h-4.8v-4.6h4.8v4.6"/><path fill="#7fd2f1" d="M62.7 34h-4.8v4.6h4.8v-4.5"/><path fill="#c1bfbd" d="M55 34h4.6v-9l-2.3-3.4L55 25v9"/><path fill="#cfcecd" d="M89.7 32.6H75v-4.2h14.7v4.2"/><path fill="#cfcecd" d="M89.7 32.6H77.3v-4.2h12.4v4.2"/><path fill="#d8d7d5" d="M91.5 25.7v.8a2 2 0 0 1-2 2h-14a2 2 0 0 1-2-2v-.8h18"/><path fill="#c1bfbd" d="M89.5 28.5h-14a2 2 0 0 1-2-1.6h18a2 2 0 0 1-2 1.6"/><path fill="#7fd2f1" d="M80.6 116.1H100V34H80.6z"/><path fill="#7fd2f1" d="M95.1 79.5h4.8V75h-4.8z"/><path fill="#4d99d9" d="M90.3 79.5H95V75h-4.8z"/><path fill="#7fd2f1" d="M85.4 79.5h4.8V75h-4.8z"/><path fill="#a2e1f2" d="M80.6 79.5h4.8V75h-4.8z"/><path fill="#95dcee" d="M95.1 84.1h4.8v-4.5h-4.8z"/><path fill="#7fd2f1" d="M90.3 84.1H95v-4.5h-4.8z"/><path fill="#a2e1f2" d="M85.4 84.1h4.8v-4.5h-4.8z"/><path fill="#62b3e3" d="M80.6 84.1h4.8v-4.5h-4.8z"/><path fill="#95dcee" d="M95.1 88.7h4.8v-4.5h-4.8z"/><path fill="#7fd2f1" d="M90.3 88.7H95v-4.5h-4.8zm-4.9 0h4.8v-4.5h-4.8z"/><path fill="#62b3e3" d="M80.6 88.7h4.8v-4.5h-4.8zm14.5 4.6h4.8v-4.6h-4.8z"/><path fill="#4d99d9" d="M90.3 93.3H95v-4.6h-4.8z"/><path fill="#7fd2f1" d="M85.4 93.3h4.8v-4.6h-4.8zm-4.8 0h4.8v-4.6h-4.8zm14.5 4.5h4.8v-4.5h-4.8zm-4.8 0H95v-4.5h-4.8zm-4.9 0h4.8v-4.5h-4.8z"/><path fill="#a2e1f2" d="M80.6 97.8h4.8v-4.5h-4.8z"/><path fill="#95dcee" d="M95.1 102.4h4.8V98h-4.8z"/><path fill="#7fd2f1" d="M90.3 102.4H95V98h-4.8z"/><path fill="#4d99d9" d="M85.4 102.4h4.8V98h-4.8z"/><path fill="#7fd2f1" d="M80.6 102.4h4.8V98h-4.8z"/><path fill="#62b3e3" d="M95.1 107h4.8v-4.5h-4.8z"/><path fill="#7fd2f1" d="M90.3 107H95v-4.5h-4.8z"/><path fill="#95dcee" d="M85.4 107h4.8v-4.5h-4.8z"/><path fill="#7fd2f1" d="M80.6 107h4.8v-4.5h-4.8zm14.5 4.6h4.8V107h-4.8z"/><path fill="#95dcee" d="M90.3 111.6H95V107h-4.8z"/><path fill="#7fd2f1" d="M85.4 111.6h4.8V107h-4.8z"/><path fill="#62b3e3" d="M80.6 111.6h4.8V107h-4.8z"/><path fill="#95dcee" d="M95.1 116.1h4.8v-4.5h-4.8z"/><path fill="#7fd2f1" d="M90.3 116.1H95v-4.5h-4.8z"/><path fill="#4d99d9" d="M85.4 116.1h4.8v-4.5h-4.8z"/><path fill="#7fd2f1" d="M80.6 116.1h4.8v-4.5h-4.8zm0-40.9h4.8v-4.5h-4.8zm4.8 0h4.8v-4.5h-4.8zm4.9 0H95v-4.5h-4.8z"/><path fill="#62b3e3" d="M100 75.2V75h-5v-4.3h4.8v4.5"/><path fill="#62b3e3" d="M95.1 75.2h4.8V75h-4.8z"/><path fill="#4d99d9" d="M80.6 70.6h4.8v-4.5h-4.8z"/><path fill="#7fd2f1" d="M85.4 70.6h4.8v-4.5h-4.8z"/><path fill="#62beed" d="M90.3 70.6H95v-4.5h-4.8z"/><path fill="#7fd2f1" d="M95.1 70.6h4.8v-4.5h-4.8zM80.6 66h4.8v-4.5h-4.8z"/><path fill="#62b3e3" d="M85.4 66h4.7v-4.5h-4.7z"/><path fill="#7fd2f1" d="M90.3 66H95v-4.5h-4.8z"/><path fill="#62beed" d="M95.1 66h4.8v-4.5h-4.8zm-14.5-4.5h4.8v-4.6h-4.8z"/><path fill="#7fd2f1" d="M85.4 61.5h4.8v-4.6h-4.8zm4.9 0H95v-4.6h-4.8z"/><path fill="#4d99d9" d="M95.1 61.5h4.8v-4.6h-4.8z"/><path fill="#7fd2f1" d="M80.6 56.9h4.8v-4.5h-4.8z"/><path fill="#4d99d9" d="M85.4 56.9h4.8v-4.5h-4.8z"/><path fill="#7fd2f1" d="M90.3 56.9H95v-4.5h-4.8zm4.8 0h4.8v-4.5h-4.8zm-14.5-4.6h4.8v-4.5h-4.8zm4.8 0h4.8v-4.5h-4.8z"/><path fill="#62beed" d="M90.3 52.3H95v-4.5h-4.8z"/><path fill="#62b3e3" d="M95.1 52.3h4.8v-4.5h-4.8zm-14.5-4.6h4.8v-4.5h-4.8z"/><path fill="#7fd2f1" d="M85.4 47.7h4.8v-4.5h-4.8z"/><path fill="#62beed" d="M90.3 47.7H95v-4.5h-4.8z"/><path fill="#7fd2f1" d="M95.1 47.7h4.8v-4.5h-4.8zm-14.5-4.5h4.8v-4.6h-4.8z"/><path fill="#62beed" d="M85.4 43.2h4.8v-4.6h-4.8z"/><path fill="#7fd2f1" d="M90.3 43.2H95v-4.6h-4.8z"/><path fill="#4d99d9" d="M95.1 43.2h4.8v-4.6h-4.8z"/><path fill="#7fd2f1" d="M80.6 38.6h4.8v-4.5h-4.8zm4.8 0h4.8v-4.5h-4.8z"/><path fill="#4d99d9" d="M90.3 38.6H95v-4.5h-4.8z"/><path fill="#62b3e3" d="M95.1 38.6h4.8v-4.5h-4.8z"/><path fill="#94cae8" d="M80.6 116.3h-4.8V34h4.8v.2h-4.8v4.5h4.8v9.2h-4.8v4.5h4.8-4.8V57h4.8v13.8h-4.8v8.8h4.8v-4.3 41.1m-4.8-13.8v4.5h4.8v-4.5h-4.8m0-13.8v4.6h4.8v-4.6h-4.8"/><path fill="#62b3e3" d="M80.6 116.1V75.2v41m0-45.5V56.9v13.8m0-22.9v-9.2 9.2m0-13.7v-.2.2m0 82v-4.5 4.5"/><path fill="#7fd2f1" d="M75.8 79.5h4.8V75h-4.8z"/><path fill="#95dcee" d="M75.8 84.1h4.8v-4.5h-4.8V84m0 4.7h4.8v-4.5h-4.8v4.5"/><path fill="#68afdf" d="M75.8 93.3h4.8v-4.6h-4.8z"/><path fill="#7fd2f1" d="M75.8 97.8h4.8v-4.5h-4.8v4.5"/><path fill="#95dcee" d="M75.8 102.4h4.8V98h-4.8v4.5"/><path fill="#68afdf" d="M75.8 107h4.8v-4.5h-4.8z"/><path fill="#7fd2f1" d="M75.8 111.6h4.8V107h-4.8v4.6"/><path fill="#95dcee" d="M75.8 116.1h4.8v-4.5h-4.8v4.5"/><path fill="#68afdf" d="M80.6 75.2V75h-4.8v-4.3h4.8v4.5"/><path fill="#56a6de" d="M80.6 75.2v-4.5 4.5"/><path fill="#62b3e3" d="M75.8 75.2h4.8V75h-4.8z"/><path fill="#7fd2f1" d="M80.6 66h-4.8v4.6h4.8v-4.5"/><path fill="#62beed" d="M80.6 61.5h-4.8V66h4.8v-4.5"/><path fill="#4d99d9" d="M80.6 57h-4.8v4.5h4.8v-4.6"/><path fill="#7fd2f1" d="M75.8 56.9h4.8v-4.5h-4.8z"/><path fill="#68afdf" d="M75.8 52.3h4.8v-4.5h-4.8z"/><path fill="#7fd2f1" d="M80.6 43.2h-4.8v4.5h4.8v-4.5"/><path fill="#4d99d9" d="M80.6 38.6h-4.8v4.6h4.8v-4.6"/><path fill="#68afdf" d="M75.8 38.6h4.8v-4.5h-4.8z"/><path fill="#86c3e5" d="M95 116.3h-5v-.2h5v.2"/><path fill="#5daee1" d="M90.3 116.1v-4.5H90h.1V33.9h4.7v.2h-4.6v4.5h4.6-4.6v4.6h4.6-4.6v4.5h4.6-4.6v4.6h4.6-4.6V57h4.6-4.6v4.6h4.6-4.6V66h4.6-4.6v4.6h4.6-4.6v8.9h4.6-4.6v4.6h4.6-4.6v4.6h4.6-4.6v4.6h4.6-4.6v4.5h4.6-4.6v4.6h4.6-4.6v4.6h4.6-4.6v4.6h4.6-4.6v4.5"/><path fill="#4d99d9" d="M95 79.5h-4.7V75v.2h4.6v4.3"/><path fill="#5daee1" d="M90.1 79.5h.1v-4.3zm.2 4.6h4.6v-4.5h-4.6z"/><path fill="#68b6e3" d="M90.1 84.1h.1v-4.5z"/><path fill="#5daee1" d="M90.3 88.7h4.6v-4.5h-4.6zm-.2 0h.1v-4.5z"/><path fill="#4d99d9" d="M90.3 93.3h4.6v-4.6h-4.6z"/><path fill="#5daee1" d="M90.1 93.3h.1v-4.6zm.2 4.5h4.6v-4.5h-4.6zm-.2 0h.1v-4.5zm.2 4.6h4.6V98h-4.6z"/><path fill="#4d99d9" d="M90.1 102.4h.1V98z"/><path fill="#5daee1" d="M90.3 107h4.6v-4.5h-4.6z"/><path fill="#64b3e1" d="M90.1 107h.1v-4.5zm.2 4.6h4.6V107h-4.6z"/><path fill="#5daee1" d="M90.1 111.6h.1V107zm4.9 4.5h-4.7v-4.5h4.6v4.5"/><path fill="#4d99d9" d="M90.2 116.1v-4.5 4.5"/><path fill="#5daee1" d="M90.2 75.2v-4.5 4.5m4.8 0h-4.7v-4.5h4.6v4.5m-4.8-4.6h.1v-4.5z"/><path fill="#54a7e1" d="M90.3 70.6h4.6v-4.5h-4.6z"/><path fill="#54a3dd" d="M90.1 66h.1v-4.5z"/><path fill="#5daee1" d="M90.3 66h4.6v-4.5h-4.6zm-.2-4.5h.1v-4.6zm.2 0h4.6v-4.6h-4.6z"/><path fill="#4d99d9" d="M90.1 56.9h.1v-4.5z"/><path fill="#5daee1" d="M90.3 56.9h4.6v-4.5h-4.6zm-.2-4.6h.1v-4.5z"/><path fill="#54a7e1" d="M90.3 52.3h4.6v-4.5h-4.6z"/><path fill="#5daee1" d="M90.1 47.7h.1v-4.5z"/><path fill="#54a7e1" d="M90.3 47.7h4.6v-4.5h-4.6zm-.2-4.5h.1v-4.6z"/><path fill="#5daee1" d="M90.3 43.2h4.6v-4.6h-4.6zm-.2-4.6h.1v-4.5z"/><path fill="#4d99d9" d="M90.3 38.6h4.6v-4.5h-4.6z"/><path fill="#d8d7d5" d="M20.2 132.3h95.1V116H20.2v16.2"/><path fill="#a1a19f" d="M49.9 132.3H25.7v-9.9h24.2v9.9"/><path fill="#8a8b8a" d="M49.9 125.2H25.7v-2.8h24.2v2.8"/><path fill="#a1a19f" d="M79.7 132.3H55.5v-9.9h24.2v9.9"/><path fill="#8a8b8a" d="M79.7 125.2H55.5v-2.8h24.2v2.8"/><path fill="#a1a19f" d="M109.6 132.3H85.4v-9.9h24.2v9.9"/><path fill="#8a8b8a" d="M109.6 125.2H85.4v-2.8h24.2v2.8"/><path fill="#d8d7d5" d="M102.6 116h-11V34h11v82"/><path fill="#edecec" d="M99.3 116h3.3V34h-3.3v82"/><path fill="#6a6c6a" d="M74.5 32.6h26.1c1 0 1.8.6 2 1.6h-30a2 2 0 0 1 2-1.6"/><path fill="#d8d7d5" d="M76.2 116h-17V25h17v91m-2-94.4h-17l2 3.3h17l-2-3.3M43.5 116h-11V34h11v82"/><path fill="#c1bfbd" d="M29.3 116h3.2V34h-3.2v82"/><path fill="#edecec" d="M32.6 116h3.2V34h-3.2v82"/><path fill="#c1bfbd" d="M17 132.3h3.2V116H17v16.2"/><path fill="#7fd2f1" d="M65.4 107v9h4.8v-9h-4.8"/><path fill="#95dcee" d="M70.2 107h-4.8v4.8z"/><path fill="#7fd2f1" d="M65.4 93.4v9h4.8v-9h-4.8"/><path fill="#95dcee" d="M70.2 93.4h-4.8v4.8z"/><path fill="#7fd2f1" d="M65.4 79.7v9h4.8v-9h-4.8"/><path fill="#95dcee" d="M70.2 79.7h-4.8v4.8z"/><path fill="#7fd2f1" d="M65.4 66v9.1h4.8v-9h-4.8"/><path fill="#95dcee" d="M70.2 66h-4.8v5z"/><path fill="#7fd2f1" d="M65.4 52.4v9.1h4.8v-9h-4.8"/><path fill="#95dcee" d="M70.2 52.4h-4.8v4.8z"/><path fill="#7fd2f1" d="M65.4 38.8v9h4.8v-9h-4.8"/><path fill="#95dcee" d="M70.2 38.8h-4.8v4.8z"/><path fill="#7fd2f1" d="M65.4 25v9h4.8v-9h-4.8"/><path fill="#95dcee" d="M70.2 25h-4.8v4.7z"/><path fill="#7fd2f1" d="M65.4 25h4.8l-1.8-3.4h-4.8l1.8 3.3"/><path fill="#6a6c6a" d="M31.3 32.6h26c1 0 1.8.6 2 1.6h-30a2 2 0 0 1 2-1.6"/><path fill="#c1bfbd" d="M30.9 32.6a2 2 0 0 0-1.6 1.6h3.2a2 2 0 0 0-1.6-1.6m25 0H41.2v-4.2h14.7v4.2"/><path fill="#cfcecd" d="M55.9 32.6H43.4v-4.2H56v4.2"/><path fill="#7fd2f1" d="M35.7 32.6h-5v-4.2h5v4.2"/><path fill="#62beed" d="M35.7 32.6h-3.3v-4.2h3.3v4.2"/><path fill="#d8d7d5" d="M37.3 25.7v.8a2 2 0 0 1-2 2H31a2 2 0 0 1-2-2v-.8h8.4"/><path fill="#c1bfbd" d="M35.3 28.5H31a2 2 0 0 1-2-1.5h8.3a2 2 0 0 1-2 1.6"/><path fill="#7fd2f1" d="M100.6 32.6h-5v-4.2h5v4.2"/><path fill="#62beed" d="M100.6 32.6h-3.3v-4.2h3.3v4.2"/><path fill="#d8d7d5" d="M102.2 25.7v.8a2 2 0 0 1-2 2H96a2 2 0 0 1-2-2v-.8h8.3"/><path fill="#c1bfbd" d="M100.2 28.5H96a2 2 0 0 1-2-1.6h8.3a2 2 0 0 1-2 1.6"/><path fill="#d8d7d5" d="M57.6 25.7v.8a2 2 0 0 1-2 2h-14a2 2 0 0 1-2-2v-.8h18"/><path fill="#c1bfbd" d="M55.6 28.5h-14a2 2 0 0 1-1.9-1.6h17.9a2 2 0 0 1-2 1.6"/></svg>
